# Blender v2.80 (sub 75) OBJ File: 'WSP_Poster_blend.blend'
# www.blender.org
mtllib WSP_Poster_obj.mtl
o Poster_Frame_Cube
v 0.005356 4.155756 -1.505292
v 0.005356 0.010461 -1.505292
v 0.005356 4.155756 1.505292
v 0.005356 0.010461 1.505292
v 0.151204 4.155756 -1.505292
v 0.151204 0.010461 -1.505292
v 0.151204 4.155756 1.505292
v 0.151204 0.010461 1.505292
v 0.085983 4.043565 -1.373305
v 0.085983 0.122652 -1.373305
v 0.085983 4.043565 1.373305
v 0.085983 0.122652 1.373305
v 0.065561 4.043565 -1.373305
v 0.065561 0.122652 -1.373305
v 0.065561 4.043565 1.373305
v 0.065561 0.122652 1.373305
v 0.065561 3.799933 -1.093944
v 0.065561 0.366284 -1.093944
v 0.065561 3.799933 1.093944
v 0.065561 0.366284 1.093944
v 0.027199 3.799933 -1.093944
v 0.027199 0.366284 -1.093944
v 0.027199 3.799933 1.093944
v 0.027199 0.366284 1.093944
v 0.027199 3.799933 -1.093944
v 0.027199 0.366284 -1.093944
v 0.027199 3.799933 1.093944
v 0.027199 0.366284 1.093944
v 0.029764 0.366284 -1.093944
v 0.029764 0.366284 1.093944
v 0.029764 3.799933 1.093944
v 0.029764 3.799933 -1.093944
vt 0.229730 0.000000
vt 0.459388 0.000000
vt 0.459388 0.333333
vt 0.229730 0.333333
vt 0.688750 0.333333
vt 0.688750 0.666667
vt 0.459204 0.666667
vt 0.459204 0.333333
vt 0.229730 0.333333
vt 0.000000 0.333333
vt 0.000000 0.000000
vt 0.229730 0.000000
vt 0.229658 0.666667
vt 0.000000 0.666667
vt 0.000000 0.333333
vt 0.229658 0.333333
vt 0.459204 0.333333
vt 0.459204 0.666667
vt 0.049909 0.675688
vt 0.049909 0.990978
vt 0.000000 1.000000
vt 0.000000 0.666667
vt 0.115320 0.675688
vt 0.115320 0.990978
vt 0.065410 1.000000
vt 0.065410 0.666667
vt 0.508890 0.681280
vt 0.508890 0.985386
vt 0.459204 1.000000
vt 0.459204 0.666667
vt 0.146329 0.985386
vt 0.146329 0.681280
vt 0.196015 0.666667
vt 0.196015 1.000000
vt 0.065410 0.675688
vt 0.065410 0.990978
vt 0.524399 0.681280
vt 0.524399 0.985386
vt 0.130821 0.675688
vt 0.130821 0.990978
vt 0.130821 0.985386
vt 0.130821 0.681280
vt 0.373765 0.666667
vt 0.373765 0.908911
vt 0.371817 0.908911
vt 0.371817 0.666667
vt 0.480705 0.019591
vt 0.480705 0.295699
vt 0.459388 0.315290
vt 0.459388 0.000000
vt 0.647657 0.295699
vt 0.647657 0.019591
vt 0.668974 0.000000
vt 0.668974 0.315290
vt 0.766596 0.036446
vt 0.766596 0.278844
vt 0.753103 0.309795
vt 0.753103 0.005495
vt 0.956766 0.278844
vt 0.956766 0.036446
vt 0.970259 0.005495
vt 0.970259 0.309795
vt 0.432032 0.666667
vt 0.432032 0.942775
vt 0.430084 0.942775
vt 0.430084 0.666667
vt 0.402899 0.666667
vt 0.402899 0.908911
vt 0.400950 0.908911
vt 0.400950 0.666667
vt 0.223187 0.942775
vt 0.223187 0.666667
vt 0.225135 0.666667
vt 0.225135 0.942775
vt 0.000000 0.000000
vt 0.000000 0.000000
vt 0.000000 0.000000
vt 0.000000 0.000000
vt 0.000000 0.000000
vt 0.000000 0.000000
vt 0.000000 0.000000
vt 0.000000 0.000000
vt 0.196015 0.942775
vt 0.196015 0.666667
vt 0.430084 0.666667
vt 0.430084 0.908911
vt 0.459204 0.666667
vt 0.459204 0.942775
vt 0.400950 0.666667
vt 0.400950 0.908911
vn 0.0000 1.0000 0.0000
vn 0.0000 0.0000 1.0000
vn -1.0000 0.0000 0.0000
vn 0.0000 -1.0000 0.0000
vn 0.0000 0.0000 -1.0000
vn 0.8965 0.0000 0.4430
vn 0.8965 0.0000 -0.4430
vn 0.8645 -0.5026 0.0000
vn 0.8645 0.5026 0.0000
vn 1.0000 0.0000 0.0000
usemtl Material.001
s off
f 5/1/1 1/2/1 3/3/1 7/4/1
f 8/5/2 7/6/2 3/7/2 4/8/2
f 4/9/3 3/10/3 1/11/3 2/12/3
f 2/13/4 6/14/4 8/15/4 4/9/4
f 2/13/5 1/16/5 5/17/5 6/18/5
f 9/19/6 10/20/6 6/21/6 5/22/6
f 12/23/7 11/24/7 7/25/7 8/26/7
f 11/27/8 9/28/8 5/29/8 7/30/8
f 10/31/9 12/32/9 8/33/9 6/34/9
f 10/20/2 9/19/2 13/35/2 14/36/2
f 9/28/4 11/27/4 15/37/4 13/38/4
f 11/24/5 12/23/5 16/39/5 15/40/5
f 12/32/1 10/31/1 14/41/1 16/42/1
f 30/43/1 29/44/1 22/45/1 24/46/1
f 17/47/10 18/48/10 14/49/10 13/50/10
f 20/51/10 19/52/10 15/53/10 16/54/10
f 19/55/10 17/56/10 13/57/10 15/58/10
f 18/59/10 20/60/10 16/61/10 14/62/10
f 31/63/5 30/64/5 24/65/5 23/66/5
f 32/67/4 31/68/4 23/69/4 21/70/4
f 29/71/2 32/72/2 21/73/2 22/74/2
f 21/75/2 23/76/2 27/77/2 25/78/2
f 22/79/2 21/75/2 25/78/2 26/80/2
f 24/81/2 22/79/2 26/80/2 28/82/2
f 23/76/2 24/81/2 28/82/2 27/77/2
f 18/83/2 17/84/2 32/72/2 29/71/2
f 17/85/4 19/86/4 31/68/4 32/67/4
f 19/87/5 20/88/5 30/64/5 31/63/5
f 20/89/1 18/90/1 29/44/1 30/43/1
o Wsp_Poster_Cube.001
v 0.027199 3.804536 -1.095028
v 0.027199 0.370917 -1.109524
v 0.027199 3.795299 1.092841
v 0.027199 0.361681 1.078345
vt 0.986830 0.000000
vt 1.000000 0.999112
vt 0.000000 0.999112
vt 0.000000 0.000000
vn 1.0000 0.0000 0.0000
usemtl Material
s off
f 34/91/11 33/92/11 35/93/11 36/94/11
o Poster_Trim_Cube.002
v 0.029764 0.366284 -1.093944
v 0.029764 0.366284 1.093944
v 0.029764 3.799933 1.093944
v 0.029764 3.799933 -1.093944
v 0.029764 0.458284 -1.009400
v 0.029764 0.458284 0.981755
v 0.029764 3.707933 0.981755
v 0.029764 3.707933 -1.009400
vt 0.000000 1.000000
vt 0.000000 0.000000
vt 0.035317 0.026794
vt 0.035317 0.973206
vt 0.688750 0.000000
vt 0.688750 1.000000
vt 0.662135 0.973206
vt 0.662135 0.026794
vt 0.335148 0.996155
vt 0.335148 -0.003845
vt 0.353602 0.034797
vt 0.353602 0.944878
vt 0.353602 -0.005230
vt 0.353602 0.994770
vt 0.335148 0.943493
vt 0.335148 0.033412
vn 1.0000 0.0000 0.0000
usemtl Material.001
s off
f 39/95/12 38/96/12 42/97/12 43/98/12
f 37/99/12 40/100/12 44/101/12 41/102/12
f 38/103/12 37/104/12 41/105/12 42/106/12
f 40/107/12 39/108/12 43/109/12 44/110/12
